<svg width="32" height="32" viewBox="0 0 32 32" fill="none" xmlns="http://www.w3.org/2000/svg">
<g clip-path="url(#clip0_11_3094)">
<rect opacity="0.4" width="32" height="32" rx="8" fill="#2B2B2B"/>
<path fill-rule="evenodd" clip-rule="evenodd" d="M16.5304 10.1303C16.8233 9.83741 16.8233 9.36254 16.5304 9.06965C16.2375 8.77675 15.7627 8.77675 15.4698 9.06965L9.06977 15.4696C8.99499 15.5444 8.93931 15.6311 8.90272 15.7235C8.86876 15.8091 8.8501 15.9023 8.8501 16C8.8501 16.106 8.87211 16.2069 8.9118 16.2984C8.94242 16.3691 8.98444 16.436 9.03785 16.4964C9.04926 16.5093 9.06111 16.5218 9.07338 16.5339L15.4698 22.9303C15.7627 23.2232 16.2375 23.2232 16.5304 22.9303C16.8233 22.6374 16.8233 22.1625 16.5304 21.8696L11.4108 16.75H22.4001C22.8143 16.75 23.1501 16.4142 23.1501 16C23.1501 15.5858 22.8143 15.25 22.4001 15.25H11.4107L16.5304 10.1303Z" fill="#E9FF07"/>
</g>
<defs>
<clipPath id="clip0_11_3094">
<rect width="32" height="32" fill="white"/>
</clipPath>
</defs>
</svg>
