<svg width="154" height="155" viewBox="0 0 154 155" fill="none" xmlns="http://www.w3.org/2000/svg">
<g opacity="0.02">
<path d="M235.757 120.716C235.538 89.6365 224.733 62.5412 203.268 40.0329C180.837 16.5092 152.8 4.08962 120.55 4.04131C55.4396 3.94371 3.64177 55.3709 3.35046 120.258C3.20572 152.403 14.723 180.161 37.2688 203.019C59.8728 225.936 87.9752 237.324 119.673 237.28C151.583 237.235 179.76 225.566 202.312 202.347C224.25 179.76 235.447 152.514 235.757 120.716ZM238.943 118.589C239.352 153.835 227.09 182.074 204.314 205.23C181.058 228.887 152.035 240.838 118.731 240.69C85.7577 240.544 57.2047 228.134 34.2784 204.847C11.4613 181.671 -0.117833 153.167 0.00139978 120.126C0.118858 87.6441 11.6826 59.653 34.0171 36.8117C57.5634 12.7315 86.8664 0.258085 120.857 0.702386C153.809 1.13205 182.104 13.5689 205.161 36.902C225.279 57.2629 240.044 88.1979 238.943 118.589Z" fill="#EFEFEF"/>
<path d="M215.327 120.712C215.147 95.071 206.24 72.7174 188.547 54.1481C170.058 34.741 146.948 24.4948 120.365 24.455C66.6972 24.3745 24.0019 66.8019 23.7618 120.334C23.6425 146.854 33.1358 169.754 51.7196 188.612C70.3513 207.518 93.5152 216.913 119.643 216.877C145.945 216.84 169.17 207.213 187.759 188.057C205.842 169.423 215.072 146.945 215.327 120.712ZM217.953 118.957C218.291 148.034 208.183 171.332 189.41 190.435C170.24 209.952 146.318 219.812 118.866 219.69C91.6874 219.569 68.1521 209.331 49.2547 190.119C30.4473 171 20.903 147.483 21.0012 120.225C21.0981 93.4273 30.6297 70.3347 49.0393 51.4906C68.4477 31.6244 92.6013 21.3338 120.618 21.7004C147.78 22.0548 171.103 32.3153 190.108 51.5651C206.69 68.3628 218.861 93.8842 217.953 118.957Z" fill="#EFEFEF"/>
<path d="M195.87 120.708C195.726 100.247 188.628 82.409 174.527 67.5911C159.793 52.1046 141.375 43.9284 120.19 43.8966C77.4187 43.8323 43.3925 77.6886 43.2011 120.406C43.106 141.568 50.6718 159.842 65.4822 174.891C80.3309 189.978 98.7914 197.475 119.614 197.445C140.576 197.416 159.085 189.734 173.899 174.448C188.311 159.578 195.666 141.641 195.87 120.708ZM197.963 119.307C198.232 142.51 190.177 161.101 175.215 176.346C159.938 191.92 140.873 199.788 118.995 199.69C97.3347 199.594 78.5781 191.424 63.5178 176.093C48.5292 160.836 40.9228 142.071 41.0011 120.319C41.0782 98.9351 48.6745 80.5077 63.3462 65.4704C78.8138 49.6177 98.0631 41.406 120.391 41.6985C142.038 41.9813 160.625 50.1689 175.771 65.5299C188.987 78.9341 198.686 99.2997 197.963 119.307Z" fill="#EFEFEF"/>
<path d="M179.663 126.312C179.519 104.319 173.873 90.3616 162.534 78.6631C150.692 66.448 136.266 60.0542 119.331 59.936C86.2181 59.7068 58.3878 86.9823 58.407 120.556C58.4262 154.359 85.448 181.341 118.986 181.481C136.241 181.553 151.248 175.066 163.056 162.464C173.957 150.828 179.944 136.895 179.663 126.312ZM119.242 57.6962C136.931 57.9278 151.971 64.4289 164.282 77.1042C176.079 89.2504 182.066 104.048 182 120.85C181.934 137.784 175.827 152.679 163.823 164.811C151.4 177.368 136.243 183.626 118.56 183.69C108.057 183.729 98.1837 181.08 89.0151 176.14C79.7026 171.126 72.1759 164.027 66.292 155.162C59.4222 144.812 56.1003 133.247 56.0026 121.07C55.9247 111.373 57.957 101.791 62.4673 92.9351C68.3134 81.4556 76.6803 72.2963 87.8326 65.9505C97.4921 60.4538 107.988 57.5503 119.242 57.6962Z" fill="#EFEFEF"/>
<path d="M74.651 121.022C73.7461 145.609 95.0373 165.582 119.142 165.574C132.069 165.57 143.101 160.993 152.078 151.878C160.554 143.274 164.779 132.614 164.731 120.754C164.679 108.115 159.838 97.0268 150.43 88.304C141.803 80.3049 131.489 76.3372 119.533 76.1506C95.6383 75.7767 73.5118 96.0386 74.651 121.022ZM119.268 167.669C93.4137 168.084 72.018 146.745 72.0005 120.771C71.9908 107.445 77.1655 95.9225 86.7525 86.7325C95.8201 78.0408 107.208 73.6124 119.735 73.692C132.387 73.7727 143.787 78.3902 152.807 87.3451C162.132 96.6039 166.982 107.936 167 121.225C167.036 145.931 145.669 168.486 119.268 167.669Z" fill="#EFEFEF"/>
<path d="M118.922 149.215C134.755 150.11 148.111 135.479 147.951 120.882C147.774 104.65 135.302 91.9193 119.112 91.8765C103.169 91.8338 90.3533 103.794 90.1551 120.741C89.9701 136.551 103.337 149.856 118.922 149.215ZM149.988 120.818C150.339 137.146 136.904 151.919 118.891 151.688C101.174 151.461 88.0184 138.469 88.0005 120.612C87.9826 103.27 101.585 89.7255 119.084 89.691C136.122 89.6572 150.475 103.799 149.988 120.818Z" fill="#EFEFEF"/>
</g>
</svg>
