<svg width="89" height="27" viewBox="0 0 89 27" fill="none" xmlns="http://www.w3.org/2000/svg">
<g clip-path="url(#clip0_47_90)">
<path d="M84.5618 0.5H4.43822C1.98706 0.5 0 2.47229 0 4.90523V22.0948C0 24.5277 1.98706 26.5 4.43822 26.5H84.5618C87.0129 26.5 89 24.5277 89 22.0948V4.90523C89 2.47229 87.0129 0.5 84.5618 0.5Z" fill="#E9FF07"/>
<path d="M20.6028 0.5H4.21272C1.88718 0.5 0.00195312 2.47552 0.00195312 4.91246V22.0875C0.00195312 24.5245 1.88718 26.5 4.21272 26.5H20.6028C22.9283 26.5 24.8135 24.5245 24.8135 22.0875V4.91246C24.8135 2.47552 22.9283 0.5 20.6028 0.5Z" fill="black"/>
<path d="M17.9716 5.60889H13.018C11.9325 5.60889 11.0518 6.53186 11.0518 7.66932V12.8602C11.0518 13.9976 11.9325 14.9206 13.018 14.9206H17.9716C19.057 14.9206 19.9378 13.9976 19.9378 12.8602V7.66932C19.9378 6.53186 19.057 5.60889 17.9716 5.60889ZM17.2265 11.7131C17.2265 11.9155 17.0701 12.0818 16.8746 12.0818H14.1127C13.9195 12.0818 13.7608 11.9179 13.7608 11.7131V8.81882C13.7608 8.61639 13.9172 8.45011 14.1127 8.45011H16.8746C17.0678 8.45011 17.2265 8.61398 17.2265 8.81882V11.7131Z" fill="#E9FF07"/>
<path d="M11.7968 12.0793H6.8432C5.75774 12.0793 4.87695 13.0023 4.87695 14.1398V19.3306C4.87695 20.4681 5.75774 21.3911 6.8432 21.3911H11.7968C12.8822 21.3911 13.763 20.4681 13.763 19.3306V14.1398C13.763 13.0023 12.8822 12.0793 11.7968 12.0793ZM11.0517 18.1835C11.0517 18.386 10.8953 18.5522 10.6998 18.5522H7.93787C7.74469 18.5522 7.58601 18.3884 7.58601 18.1835V15.2893C7.58601 15.0869 7.74239 14.9206 7.93787 14.9206H10.6998C10.893 14.9206 11.0517 15.0844 11.0517 15.2893V18.1835Z" fill="#E9FF07"/>
<path d="M16.8769 12.0793H11.0518V12.8601C11.0518 13.9976 11.9325 14.9206 13.018 14.9206H17.9716C19.057 14.9206 19.9378 13.9976 19.9378 12.8601V12.0793H16.8769Z" fill="#E9FF07"/>
<path d="M7.93787 14.9206H13.763V14.1398C13.763 13.0023 12.8822 12.0793 11.7968 12.0793H6.8432C5.75774 12.0793 4.87695 13.0023 4.87695 14.1398V14.9206H7.93787Z" fill="#E9FF07"/>
<path d="M13.7631 11.7131V5.60889H13.018C11.9325 5.60889 11.0518 6.53186 11.0518 7.66932V12.8602C11.0518 13.9976 11.9325 14.9206 13.018 14.9206H13.7631V11.7131Z" fill="#E9FF07"/>
<path d="M11.7969 12.0793H11.0518V21.3911H11.7969C12.8823 21.3911 13.7631 20.4681 13.7631 19.3306V14.1398C13.7631 13.0023 12.8823 12.0793 11.7969 12.0793Z" fill="#E9FF07"/>
<path d="M28.0811 10.0028V9.05931C28.8546 8.88656 30.6934 8.76696 31.2387 8.76696C33.3185 8.76696 34.7008 9.48456 34.7008 11.5576C34.7008 13.7503 33.3058 14.7071 31.5431 14.7071C31.0992 14.7071 30.8456 14.6406 30.7188 14.6141V17.8964H28.6644V10.0028H28.0811ZM32.6591 11.6772C32.6591 10.2022 31.9869 9.94967 31.2514 9.94967C30.9978 9.94967 30.8456 9.96296 30.7188 9.98954V13.4845C30.8203 13.5111 31.0485 13.551 31.3148 13.551C31.9869 13.551 32.6591 13.1257 32.6591 11.6772Z" fill="black"/>
<path d="M37.7834 9.39154C37.7834 10.149 37.3142 10.5078 36.7689 10.5078C36.2235 10.5078 35.7543 10.1756 35.7543 9.39154C35.7543 8.60749 36.0967 8.27527 36.7689 8.27527C37.3142 8.27527 37.7834 8.58091 37.7834 9.39154ZM37.8087 12.6074V16.6473H38.4682V17.5642C38.0877 17.7635 37.3395 17.9363 36.9971 17.9363C36.0587 17.9363 35.8938 17.5243 35.8938 16.6473V12.8998H35.2344V11.9829C35.6656 11.7437 36.3123 11.6108 36.8069 11.6108C37.2634 11.6108 37.8087 11.8898 37.8087 12.6074Z" fill="black"/>
<path d="M44.3121 16.7004V17.6174C43.8683 17.8698 43.4752 17.9363 43.0186 17.9363C42.3085 17.9363 41.89 17.6174 41.3066 15.8499L40.4189 17.8964H38.7957L40.7233 15.026L39.5185 12.8998H38.8972V11.9829C39.2776 11.757 39.8863 11.6108 40.3428 11.6108C41.1291 11.6108 41.3827 12.1423 41.8646 13.6971L42.727 11.6772H44.1726L42.4606 14.5875L43.1708 15.7968C43.602 16.5542 43.7034 16.7004 44.3121 16.7004Z" fill="black"/>
<path d="M47.0367 18.0293C46.1997 18.0293 45.35 17.8034 44.8935 17.511V16.1423C45.5276 16.5808 46.1363 16.7669 46.8084 16.7669C47.2396 16.7669 47.5947 16.5941 47.5947 16.1157C47.5947 15.6772 47.1001 15.438 46.3519 15.1456C45.4642 14.8001 44.9062 14.3616 44.9062 13.4978C44.9062 12.1158 45.8193 11.5178 47.0113 11.5178C47.9371 11.5178 48.7233 11.7038 49.1798 12.0094L48.9769 13.139C48.3809 12.8865 47.7342 12.727 47.4298 12.727C46.9352 12.727 46.6309 12.8068 46.6309 13.2187C46.6309 13.6706 47.4552 13.8433 47.9751 14.0825C48.9135 14.5078 49.4969 14.9197 49.4969 15.9297C49.4969 16.7403 49.0023 18.0293 47.0367 18.0293Z" fill="black"/>
<path d="M53.7518 16.634V17.7901C53.7518 17.7901 53.1304 17.9629 52.2808 17.9629C50.8097 17.9629 50.6956 17.0061 50.6956 15.8366V12.8466H50.0742V11.943C50.0742 11.943 50.9746 11.6108 51.2662 10.6008L51.4945 9.80349L52.6105 9.72376V11.6374H53.7518V12.8466H52.6105V15.9297C52.6105 16.541 52.8007 16.7403 53.1304 16.7403C53.384 16.7403 53.7518 16.634 53.7518 16.634Z" fill="black"/>
<path d="M60.2811 14.747C60.2811 17.4978 58.7339 18.0293 57.3009 18.0293C55.6777 18.0293 54.4476 17.232 54.4476 14.747C54.4476 11.7702 56.3118 11.5178 57.3643 11.5178C59.0383 11.5178 60.2811 12.0094 60.2811 14.747ZM58.3281 14.747C58.3281 13.3516 58.1633 12.634 57.3643 12.634C56.7556 12.634 56.4006 12.9928 56.4006 14.747C56.4006 16.2353 56.6795 16.913 57.3643 16.913C57.9731 16.913 58.3281 16.6207 58.3281 14.747Z" fill="black"/>
<path d="M65.4085 11.6506V13.3118C64.9646 13.1257 64.5208 13.1124 64.191 13.1124C63.5696 13.1124 63.3921 13.4446 63.3921 13.9098V17.8964H61.4772V12.8998H60.8178V11.9829C61.3631 11.7304 61.883 11.6108 62.2381 11.6108C62.8595 11.6108 63.1512 11.8898 63.2653 12.5809C63.6711 11.8898 64.1276 11.5975 64.8632 11.5975C65.028 11.5975 65.2056 11.6108 65.4085 11.6506Z" fill="black"/>
<path d="M66.6653 12.8998H66.0059V11.9829C66.3356 11.7835 66.8936 11.6108 67.3121 11.6108C68.5168 11.6108 68.9353 13.4446 69.5947 16.541H69.6708C69.9625 15.3848 70.3176 13.2187 70.5458 11.6772H72.0169C71.7379 13.0726 71.294 14.5476 70.9263 15.6639C69.7849 19.0924 68.7451 20.8067 67.6164 20.8067C67.2867 20.8067 67.0965 20.7004 66.9697 20.4878V19.0526C67.236 19.0924 67.4516 19.119 67.6925 19.119C68.1744 19.119 68.5422 18.9994 68.5422 18.4811C68.5422 18.0692 68.3139 17.418 68.0222 16.5941C67.5276 15.1722 66.995 13.8566 66.6653 12.8998Z" fill="black"/>
<path d="M74.0536 16.913C74.0536 17.6705 73.5844 18.0293 73.0391 18.0293C72.4938 18.0293 72.0246 17.6971 72.0246 16.913C72.0246 16.129 72.367 15.7968 73.0391 15.7968C73.5844 15.7968 74.0536 16.1024 74.0536 16.913Z" fill="black"/>
<path d="M80.5289 16.6473V17.5642C80.5289 17.5642 79.8822 17.9496 79.1847 17.9496C78.4492 17.9496 78.2843 17.6041 78.1575 17.1655C77.8151 17.8167 77.0796 18.016 76.3567 18.016C75.6212 18.016 74.7208 17.5775 74.7208 16.1822C74.7208 14.4546 76.0397 13.9762 77.6249 13.9762H77.9546V13.6971C77.9546 12.7802 77.5868 12.7802 77.0922 12.7802C76.5089 12.7802 75.9382 12.9131 75.2534 13.4314L75.1773 12.036C76.0524 11.6374 76.4962 11.5178 77.7517 11.5178C79.5398 11.5178 79.8695 12.5011 79.8695 13.6971V16.6473H80.5289ZM77.9546 15.9828V14.8798C77.0415 14.8798 76.6738 15.1589 76.6738 15.8898C76.6738 16.315 76.8006 16.7403 77.2191 16.7403C77.9039 16.7403 77.9546 15.9828 77.9546 15.9828Z" fill="black"/>
<path d="M83.504 9.39154C83.504 10.149 83.0348 10.5078 82.4895 10.5078C81.9442 10.5078 81.475 10.1756 81.475 9.39154C81.475 8.60749 81.8174 8.27527 82.4895 8.27527C83.0348 8.27527 83.504 8.58091 83.504 9.39154ZM83.5294 12.6074V16.6473H84.1888V17.5642C83.8084 17.7635 83.0602 17.9363 82.7178 17.9363C81.7793 17.9363 81.6145 17.5243 81.6145 16.6473V12.8998H80.955V11.9829C81.3862 11.7437 82.033 11.6108 82.5275 11.6108C82.9841 11.6108 83.5294 11.8898 83.5294 12.6074Z" fill="black"/>
</g>
<defs>
<clipPath id="clip0_47_90">
<rect width="89" height="26" fill="white" transform="translate(0 0.5)"/>
</clipPath>
</defs>
</svg>
