<svg width="91" height="27" viewBox="0 0 91 27" fill="none" xmlns="http://www.w3.org/2000/svg">
<g clip-path="url(#clip0_47_121)">
<path d="M86.0621 0.5H4.51697C2.02232 0.5 0 2.47229 0 4.90523V22.0948C0 24.5277 2.02232 26.5 4.51697 26.5H86.0621C88.5568 26.5 90.5791 24.5277 90.5791 22.0948V4.90523C90.5791 2.47229 88.5568 0.5 86.0621 0.5Z" fill="black"/>
<path d="M20.6028 0.5H4.21272C1.88718 0.5 0.00195312 2.47552 0.00195312 4.91246V22.0875C0.00195312 24.5245 1.88718 26.5 4.21272 26.5H20.6028C22.9283 26.5 24.8135 24.5245 24.8135 22.0875V4.91246C24.8135 2.47552 22.9283 0.5 20.6028 0.5Z" fill="#E9FF07"/>
<path d="M17.9716 5.60889H13.018C11.9325 5.60889 11.0518 6.53186 11.0518 7.66932V12.8602C11.0518 13.9976 11.9325 14.9206 13.018 14.9206H17.9716C19.057 14.9206 19.9378 13.9976 19.9378 12.8602V7.66932C19.9378 6.53186 19.057 5.60889 17.9716 5.60889ZM17.2265 11.7131C17.2265 11.9155 17.0701 12.0818 16.8746 12.0818H14.1127C13.9195 12.0818 13.7608 11.9179 13.7608 11.7131V8.81882C13.7608 8.61639 13.9172 8.45011 14.1127 8.45011H16.8746C17.0678 8.45011 17.2265 8.61398 17.2265 8.81882V11.7131Z" fill="black"/>
<path d="M11.7968 12.0793H6.8432C5.75774 12.0793 4.87695 13.0023 4.87695 14.1398V19.3306C4.87695 20.4681 5.75774 21.3911 6.8432 21.3911H11.7968C12.8822 21.3911 13.763 20.4681 13.763 19.3306V14.1398C13.763 13.0023 12.8822 12.0793 11.7968 12.0793ZM11.0517 18.1835C11.0517 18.386 10.8953 18.5522 10.6998 18.5522H7.93787C7.74469 18.5522 7.58601 18.3884 7.58601 18.1835V15.2893C7.58601 15.0869 7.74239 14.9206 7.93787 14.9206H10.6998C10.893 14.9206 11.0517 15.0844 11.0517 15.2893V18.1835Z" fill="black"/>
<path d="M16.8769 12.0793H11.0518V12.8601C11.0518 13.9976 11.9325 14.9206 13.018 14.9206H17.9716C19.057 14.9206 19.9378 13.9976 19.9378 12.8601V12.0793H16.8769Z" fill="black"/>
<path d="M7.93787 14.9206H13.763V14.1398C13.763 13.0023 12.8822 12.0793 11.7968 12.0793H6.8432C5.75774 12.0793 4.87695 13.0023 4.87695 14.1398V14.9206H7.93787Z" fill="black"/>
<path d="M13.7631 11.7131V5.60889H13.018C11.9325 5.60889 11.0518 6.53186 11.0518 7.66932V12.8602C11.0518 13.9976 11.9325 14.9206 13.018 14.9206H13.7631V11.7131Z" fill="black"/>
<path d="M11.7969 12.0793H11.0518V21.3911H11.7969C12.8823 21.3911 13.7631 20.4681 13.7631 19.3306V14.1398C13.7631 13.0023 12.8823 12.0793 11.7969 12.0793Z" fill="black"/>
<path d="M28.0811 10.0029V9.05944C28.8546 8.88668 30.6934 8.76708 31.2387 8.76708C33.3185 8.76708 34.7008 9.48468 34.7008 11.5577C34.7008 13.7504 33.3058 14.7072 31.5431 14.7072C31.0992 14.7072 30.8456 14.6408 30.7188 14.6142V17.8965H28.6644V10.0029H28.0811ZM32.6591 11.6773C32.6591 10.2023 31.9869 9.94979 31.2514 9.94979C30.9978 9.94979 30.8456 9.96308 30.7188 9.98966V13.4846C30.8203 13.5112 31.0485 13.5511 31.3148 13.5511C31.9869 13.5511 32.6591 13.1258 32.6591 11.6773Z" fill="#E9FF07"/>
<path d="M37.7834 9.39166C37.7834 10.1491 37.3142 10.5079 36.7689 10.5079C36.2235 10.5079 35.7543 10.1757 35.7543 9.39166C35.7543 8.60761 36.0967 8.27539 36.7689 8.27539C37.3142 8.27539 37.7834 8.58104 37.7834 9.39166ZM37.8087 12.6076V16.6474H38.4682V17.5643C38.0877 17.7637 37.3395 17.9364 36.9971 17.9364C36.0587 17.9364 35.8938 17.5245 35.8938 16.6474V12.8999H35.2344V11.983C35.6656 11.7438 36.3123 11.6109 36.8069 11.6109C37.2634 11.6109 37.8087 11.89 37.8087 12.6076Z" fill="#E9FF07"/>
<path d="M44.3121 16.7005V17.6175C43.8683 17.87 43.4752 17.9364 43.0186 17.9364C42.3085 17.9364 41.89 17.6175 41.3066 15.8501L40.4189 17.8965H38.7957L40.7233 15.0261L39.5185 12.8999H38.8972V11.983C39.2776 11.7571 39.8863 11.6109 40.3428 11.6109C41.1291 11.6109 41.3827 12.1425 41.8646 13.6973L42.727 11.6773H44.1726L42.4606 14.5876L43.1708 15.7969C43.602 16.5544 43.7034 16.7005 44.3121 16.7005Z" fill="#E9FF07"/>
<path d="M47.0367 18.0294C46.1997 18.0294 45.35 17.8035 44.8935 17.5112V16.1424C45.5276 16.5809 46.1363 16.767 46.8084 16.767C47.2396 16.767 47.5947 16.5942 47.5947 16.1158C47.5947 15.6773 47.1001 15.4381 46.3519 15.1457C45.4642 14.8002 44.9062 14.3617 44.9062 13.4979C44.9062 12.1159 45.8193 11.5179 47.0113 11.5179C47.9371 11.5179 48.7233 11.7039 49.1798 12.0096L48.9769 13.1391C48.3809 12.8866 47.7342 12.7272 47.4298 12.7272C46.9352 12.7272 46.6309 12.8069 46.6309 13.2189C46.6309 13.6707 47.4552 13.8434 47.9751 14.0826C48.9135 14.5079 49.4969 14.9198 49.4969 15.9298C49.4969 16.7404 49.0023 18.0294 47.0367 18.0294Z" fill="#E9FF07"/>
<path d="M53.7518 16.6341V17.7902C53.7518 17.7902 53.1304 17.963 52.2808 17.963C50.8097 17.963 50.6956 17.0062 50.6956 15.8368V12.8468H50.0742V11.9431C50.0742 11.9431 50.9746 11.6109 51.2662 10.6009L51.4945 9.80361L52.6105 9.72388V11.6375H53.7518V12.8468H52.6105V15.9298C52.6105 16.5411 52.8007 16.7404 53.1304 16.7404C53.384 16.7404 53.7518 16.6341 53.7518 16.6341Z" fill="#E9FF07"/>
<path d="M60.2811 14.7471C60.2811 17.4979 58.7339 18.0294 57.3009 18.0294C55.6777 18.0294 54.4476 17.2321 54.4476 14.7471C54.4476 11.7704 56.3118 11.5179 57.3643 11.5179C59.0383 11.5179 60.2811 12.0096 60.2811 14.7471ZM58.3281 14.7471C58.3281 13.3517 58.1633 12.6341 57.3643 12.6341C56.7556 12.6341 56.4006 12.9929 56.4006 14.7471C56.4006 16.2354 56.6795 16.9132 57.3643 16.9132C57.9731 16.9132 58.3281 16.6208 58.3281 14.7471Z" fill="#E9FF07"/>
<path d="M65.4085 11.6508V13.3119C64.9646 13.1258 64.5208 13.1125 64.191 13.1125C63.5696 13.1125 63.3921 13.4448 63.3921 13.9099V17.8965H61.4772V12.8999H60.8178V11.983C61.3631 11.7305 61.883 11.6109 62.2381 11.6109C62.8595 11.6109 63.1512 11.89 63.2653 12.581C63.6711 11.89 64.1276 11.5976 64.8632 11.5976C65.028 11.5976 65.2056 11.6109 65.4085 11.6508Z" fill="#E9FF07"/>
<path d="M66.6653 12.8999H66.0059V11.983C66.3356 11.7837 66.8936 11.6109 67.3121 11.6109C68.5168 11.6109 68.9353 13.4448 69.5947 16.5411H69.6708C69.9625 15.3849 70.3176 13.2189 70.5458 11.6773H72.0169C71.7379 13.0727 71.294 14.5477 70.9263 15.664C69.7849 19.0925 68.7451 20.8068 67.6164 20.8068C67.2867 20.8068 67.0965 20.7005 66.9697 20.4879V19.0527C67.236 19.0925 67.4516 19.1191 67.6925 19.1191C68.1744 19.1191 68.5422 18.9995 68.5422 18.4813C68.5422 18.0693 68.3139 17.4181 68.0222 16.5942C67.5276 15.1723 66.995 13.8567 66.6653 12.8999Z" fill="#E9FF07"/>
<path d="M74.0536 16.9132C74.0536 17.6706 73.5844 18.0294 73.0391 18.0294C72.4938 18.0294 72.0246 17.6972 72.0246 16.9132C72.0246 16.1291 72.367 15.7969 73.0391 15.7969C73.5844 15.7969 74.0536 16.1025 74.0536 16.9132Z" fill="#E9FF07"/>
<path d="M80.5289 16.6474V17.5643C80.5289 17.5643 79.8822 17.9497 79.1847 17.9497C78.4492 17.9497 78.2843 17.6042 78.1575 17.1657C77.8151 17.8168 77.0796 18.0161 76.3567 18.0161C75.6212 18.0161 74.7208 17.5776 74.7208 16.1823C74.7208 14.4547 76.0397 13.9763 77.6249 13.9763H77.9546V13.6973C77.9546 12.7803 77.5868 12.7803 77.0922 12.7803C76.5089 12.7803 75.9382 12.9132 75.2534 13.4315L75.1773 12.0361C76.0524 11.6375 76.4962 11.5179 77.7517 11.5179C79.5398 11.5179 79.8695 12.5013 79.8695 13.6973V16.6474H80.5289ZM77.9546 15.9829V14.88C77.0415 14.88 76.6738 15.159 76.6738 15.8899C76.6738 16.3152 76.8006 16.7404 77.2191 16.7404C77.9039 16.7404 77.9546 15.9829 77.9546 15.9829Z" fill="#E9FF07"/>
<path d="M83.504 9.39166C83.504 10.1491 83.0348 10.5079 82.4895 10.5079C81.9442 10.5079 81.475 10.1757 81.475 9.39166C81.475 8.60761 81.8174 8.27539 82.4895 8.27539C83.0348 8.27539 83.504 8.58104 83.504 9.39166ZM83.5294 12.6076V16.6474H84.1888V17.5643C83.8084 17.7637 83.0602 17.9364 82.7178 17.9364C81.7793 17.9364 81.6145 17.5245 81.6145 16.6474V12.8999H80.955V11.983C81.3862 11.7438 82.033 11.6109 82.5275 11.6109C82.9841 11.6109 83.5294 11.89 83.5294 12.6076Z" fill="#E9FF07"/>
</g>
<defs>
<clipPath id="clip0_47_121">
<rect width="91" height="26" fill="white" transform="translate(0 0.5)"/>
</clipPath>
</defs>
</svg>
