<svg width="18" height="16" viewBox="0 0 18 16" fill="none" xmlns="http://www.w3.org/2000/svg">
<path d="M17.0001 2.28577V6.8572H12.4287" stroke="#E9FF07" stroke-width="1.5" stroke-linecap="round" stroke-linejoin="round"/>
<path d="M1 13.7143V9.14288H5.57143" stroke="#E9FF07" stroke-width="1.5" stroke-linecap="round" stroke-linejoin="round"/>
<path d="M2.82545 5.71371C3.1943 4.62145 3.82119 3.6449 4.64761 2.87519C5.47404 2.10547 6.47307 1.56768 7.55148 1.31199C8.6299 1.0563 9.75255 1.09104 10.8147 1.41298C11.8768 1.73492 12.8438 2.33356 13.6255 3.15304L17 6.47582M1 9.52424L4.37455 12.847C5.15618 13.6665 6.12318 14.2651 7.18532 14.5871C8.24745 14.909 9.3701 14.9438 10.4485 14.6881C11.5269 14.4324 12.526 13.8946 13.3524 13.1249C14.1788 12.3551 14.8057 11.3786 15.1745 10.2863" stroke="#E9FF07" stroke-width="1.5" stroke-linecap="round" stroke-linejoin="round"/>
</svg>
