<svg width="120" height="24" viewBox="0 0 120 24" fill="none" xmlns="http://www.w3.org/2000/svg">
<g clip-path="url(#clip0_18_3403)">
<path d="M3.20566 0H24.4505V24H3.20566C1.43631 24 0 22.5901 0 20.8534V3.1466C0 1.40985 1.43631 0 3.20566 0Z" fill="black"/>
<path d="M20.0241 7.27097V10.8178C20.0054 10.8716 19.9759 10.9248 19.9693 10.9797C19.8109 12.3086 18.5859 13.4554 17.2267 13.5133C16.3655 13.55 15.5025 13.5464 14.6401 13.5583C14.3324 13.5624 14.0253 13.5589 13.688 13.5589V19.3963C11.5706 19.3963 9.48446 19.4004 7.39834 19.3945C6.38118 19.3916 5.6037 18.9133 4.99123 18.1525C4.59196 17.6566 4.42393 17.0725 4.42755 16.4495C4.43477 15.2796 4.40286 14.1051 4.49861 12.9411C4.604 11.6601 5.89397 10.5346 7.20864 10.4873C8.26073 10.4489 9.31403 10.4548 10.3667 10.4412C10.4842 10.4394 10.6016 10.4412 10.7503 10.4412V4.61856C10.8292 4.61265 10.878 4.60615 10.9262 4.60615C12.9726 4.60496 15.0189 4.59728 17.0659 4.60615C18.0451 4.61028 18.7979 5.07373 19.4104 5.79314C19.7759 6.2223 19.9132 6.74073 20.0241 7.27038V7.27097ZM9.10144 13.3449C8.61002 13.3449 8.11921 13.3496 7.62779 13.3425C7.44351 13.3395 7.34414 13.3945 7.34474 13.5902C7.34775 14.4858 7.34595 15.3807 7.34715 16.2763C7.34715 16.4572 7.43869 16.5423 7.62779 16.5417C8.59015 16.5388 9.55251 16.5393 10.5149 16.5417C10.7112 16.5417 10.807 16.466 10.8057 16.2603C10.8003 15.3748 10.7991 14.4893 10.807 13.6038C10.8088 13.4111 10.7395 13.3401 10.545 13.3437C10.0638 13.3514 9.58262 13.346 9.10144 13.346V13.3449ZM15.3736 10.6865C15.8446 10.6865 16.3155 10.6812 16.7865 10.6889C17.0135 10.6925 17.1141 10.6056 17.1123 10.3768C17.1063 9.52082 17.1069 8.66546 17.1123 7.8095C17.1135 7.59373 17.0412 7.48201 16.8009 7.48378C15.8488 7.49028 14.8967 7.4891 13.9446 7.48437C13.7061 7.48319 13.638 7.59018 13.6404 7.81186C13.6495 8.66782 13.6513 9.52378 13.6398 10.3792C13.6368 10.6192 13.738 10.6907 13.9602 10.6883C14.4312 10.6824 14.9021 10.6865 15.373 10.6865H15.3736Z" fill="#E9FF07"/>
<path d="M27.8467 3.73542C29.0915 3.47473 32.0514 3.29443 32.9289 3.29443C36.2761 3.29443 38.5013 4.37621 38.5013 7.50153C38.5013 10.8071 36.2562 12.2495 33.4191 12.2495C32.7049 12.2495 32.2965 12.1496 32.0924 12.1094V17.0578H28.7856V5.15828H27.8467V3.73601V3.73542ZM32.9494 5.07788C32.541 5.07788 32.2959 5.09798 32.0924 5.13818V10.4075C32.2556 10.4477 32.623 10.508 33.0517 10.508C34.1333 10.508 35.2155 9.86665 35.2155 7.68301C35.2155 5.49936 34.1339 5.07847 32.95 5.07847L32.9494 5.07788Z" fill="black"/>
<path d="M43.7057 15.1756H44.7668V16.5582C44.1544 16.8585 42.9505 17.1192 42.3989 17.1192C40.8885 17.1192 40.6229 16.4979 40.6229 15.1756V9.52553H39.5618V8.14287C40.2555 7.78228 41.2968 7.58189 42.0929 7.58189C42.8277 7.58189 43.7051 8.00277 43.7051 9.08455V15.175L43.7057 15.1756ZM42.0321 5.91962C41.1547 5.91962 40.3995 5.41893 40.3995 4.23667C40.3995 3.0544 40.9505 2.55371 42.0321 2.55371C42.9096 2.55371 43.6647 3.01479 43.6647 4.23667C43.6647 5.37874 42.9096 5.91962 42.0321 5.91962Z" fill="black"/>
<path d="M54.381 16.638C53.6667 17.0187 53.0338 17.1186 52.2991 17.1186C51.156 17.1186 50.4828 16.638 49.5439 13.9732L48.1154 17.0583H45.5029L48.6056 12.7307L46.6664 9.52494H45.6661V8.14228C46.2786 7.80179 47.2584 7.5813 47.9931 7.5813C49.2584 7.5813 49.6667 8.38288 50.4424 10.7267L51.8305 7.6812H54.1575L51.4024 12.0686L52.5454 13.8916C53.2392 15.0337 53.4024 15.2542 54.3822 15.2542V16.6369L54.381 16.638Z" fill="black"/>
<path d="M55.5239 16.4778V14.4142C56.5447 15.0757 57.5239 15.3559 58.6061 15.3559C59.2999 15.3559 59.8714 15.0952 59.8714 14.374C59.8714 13.7125 59.0753 13.3519 57.8708 12.9115C56.4423 12.3907 55.5438 11.7293 55.5438 10.427C55.5438 8.34325 57.0132 7.44177 58.9319 7.44177C60.4219 7.44177 61.6871 7.72256 62.4225 8.18305L62.096 9.88611C61.1367 9.50542 60.0954 9.26483 59.6058 9.26483C58.8097 9.26483 58.3201 9.38483 58.3201 10.0061C58.3201 10.6871 59.6468 10.9478 60.4839 11.3084C61.9943 11.9498 62.9331 12.5704 62.9331 14.0932C62.9331 15.3157 62.137 17.2587 58.9735 17.2587C57.6263 17.2587 56.2586 16.9182 55.5239 16.4772V16.4778Z" fill="black"/>
<path d="M69.9955 16.8987C69.9955 16.8987 68.9952 17.1594 67.6281 17.1594C65.2602 17.1594 65.0765 15.717 65.0765 13.9537V9.44568H64.0762V8.08312C64.0762 8.08312 65.5251 7.58243 65.9949 6.05967L66.3622 4.8573L68.1581 4.7373V7.62262H69.9949V9.44568H68.1581V14.0938C68.1581 15.0153 68.464 15.3162 68.9952 15.3162C69.4035 15.3162 69.9955 15.156 69.9955 15.156V16.8993V16.8987Z" fill="black"/>
<path d="M75.9141 17.2593C73.3017 17.2593 71.3215 16.057 71.3215 12.311C71.3215 7.82307 74.3218 7.44238 76.0159 7.44238C78.7103 7.44238 80.7103 8.18366 80.7103 12.311C80.7103 16.4382 78.2201 17.2593 75.9135 17.2593H75.9141ZM76.0165 9.12534C75.0367 9.12534 74.4652 9.66622 74.4652 12.311C74.4652 14.5549 74.9144 15.5764 76.0165 15.5764C76.9963 15.5764 77.5678 15.1354 77.5678 12.311C77.5678 10.2071 77.3023 9.12534 76.0165 9.12534Z" fill="black"/>
<path d="M89.1614 10.1468C88.4472 9.86602 87.733 9.84652 87.2018 9.84652C86.2015 9.84652 85.916 10.3472 85.916 11.0489V17.0595H82.8338V9.52612H81.7727V8.14346C82.6502 7.76277 83.4873 7.58248 84.0588 7.58248C85.0591 7.58248 85.5282 8.00336 85.7119 9.04494C86.3653 8.00336 87.1 7.56238 88.2834 7.56238C88.549 7.56238 88.8344 7.58248 89.1608 7.64277V10.1474L89.1614 10.1468Z" fill="black"/>
<path d="M90.325 9.52555V8.14289C90.8555 7.8426 91.7534 7.58191 92.4273 7.58191C94.3665 7.58191 95.0398 10.3466 96.1015 15.0148H96.2238C96.6935 13.2716 97.265 10.0061 97.6324 7.68181H99.9997C99.5505 9.78565 98.8362 12.0095 98.2443 13.6925C96.4075 18.8613 94.7333 21.4458 92.9169 21.4458C92.3864 21.4458 92.0798 21.2856 91.8763 20.9652V18.8016C92.3051 18.8619 92.652 18.9021 93.0398 18.9021C93.8155 18.9021 94.4075 18.7218 94.4075 17.9403C94.4075 17.3191 94.0401 16.3378 93.5704 15.0952C92.7742 12.9512 91.9172 10.9679 91.3861 9.52555H90.325Z" fill="black"/>
<path d="M102.94 15.52C102.94 16.66 102.2 17.2 101.34 17.2C100.48 17.2 99.74 16.7 99.74 15.52C99.74 14.34 100.28 13.84 101.34 13.84C102.2 13.84 102.94 14.3 102.94 15.52Z" fill="#E9FF07"/>
<path d="M113.352 15.12V16.5C113.352 16.5 112.332 17.08 111.232 17.08C110.072 17.08 109.812 16.56 109.612 15.9C109.072 16.88 107.912 17.18 106.772 17.18C105.612 17.18 104.192 16.52 104.192 14.42C104.192 11.82 106.272 11.1 108.772 11.1H109.292V10.68C109.292 9.3 108.712 9.3 107.932 9.3C107.012 9.3 106.112 9.5 105.032 10.28L104.912 8.18C106.292 7.58 106.992 7.4 108.972 7.4C111.792 7.4 112.312 8.88 112.312 10.68V15.12H113.352ZM109.292 14.12V12.46C107.852 12.46 107.272 12.88 107.272 13.98C107.272 14.62 107.472 15.26 108.132 15.26C109.212 15.26 109.292 14.12 109.292 14.12ZM118.244 4.2C118.244 5.34 117.504 5.88 116.644 5.88C115.784 5.88 115.044 5.38 115.044 4.2C115.044 3.02 115.584 2.52 116.644 2.52C117.504 2.52 118.244 2.98 118.244 4.2ZM118.284 9.04V15.12H119.324V16.5C118.724 16.8 117.544 17.06 117.004 17.06C115.524 17.06 115.264 16.44 115.264 15.12V9.48H114.224V8.1C114.904 7.74 115.924 7.54 116.704 7.54C117.424 7.54 118.284 7.96 118.284 9.04Z" fill="black"/>
</g>
<defs>
<clipPath id="clip0_18_3403">
<rect width="120" height="24" fill="white"/>
</clipPath>
</defs>
</svg>
