<svg width="14" height="17" viewBox="0 0 14 17" fill="none" xmlns="http://www.w3.org/2000/svg">
<path d="M9.57373 2.42896H11.0027C11.3817 2.42896 11.7451 2.57951 12.0131 2.84749C12.2811 3.11547 12.4316 3.47893 12.4316 3.85791V13.8606C12.4316 14.2396 12.2811 14.603 12.0131 14.871C11.7451 15.139 11.3817 15.2896 11.0027 15.2896H2.42896C2.04997 15.2896 1.68651 15.139 1.41853 14.871C1.15055 14.603 1 14.2396 1 13.8606V3.85791C1 3.47893 1.15055 3.11547 1.41853 2.84749C1.68651 2.57951 2.04997 2.42896 2.42896 2.42896H3.85791" stroke="#E9FF07" stroke-width="1.5" stroke-linecap="round" stroke-linejoin="round"/>
<path d="M8.85925 1H4.57239C4.17779 1 3.85791 1.31988 3.85791 1.71448V3.14343C3.85791 3.53803 4.17779 3.85791 4.57239 3.85791H8.85925C9.25385 3.85791 9.57373 3.53803 9.57373 3.14343V1.71448C9.57373 1.31988 9.25385 1 8.85925 1Z" stroke="#E9FF07" stroke-width="1.5" stroke-linecap="round" stroke-linejoin="round"/>
</svg>
