<svg width="48" height="55" viewBox="0 0 48 55" fill="none" xmlns="http://www.w3.org/2000/svg">
<g filter="url(#filter0_dd_52_939)">
<circle cx="24" cy="27" r="20" fill="black"/>
<g filter="url(#filter1_dd_52_939)">
<path d="M35.5398 20.8526C35.4742 20.8526 35.4185 20.8395 35.3725 20.8133C35.3266 20.7871 35.2905 20.7412 35.2643 20.6757L34.6936 19.3388L33.2569 18.7097C33.1913 18.6835 33.1454 18.6475 33.1192 18.6016C33.0929 18.5557 33.0798 18.5 33.0798 18.4345C33.0798 18.3689 33.0929 18.3132 33.1192 18.2674C33.1454 18.2215 33.1913 18.1855 33.2569 18.1592L34.6936 17.5498L35.2643 16.2719C35.2905 16.2064 35.3266 16.1605 35.3725 16.1343C35.4185 16.1081 35.4742 16.095 35.5398 16.095C35.6054 16.095 35.6612 16.1081 35.7071 16.1343C35.753 16.1605 35.7891 16.2064 35.8153 16.2719L36.386 17.5498L37.8227 18.1592C37.8883 18.1855 37.9342 18.2215 37.9604 18.2674C37.9867 18.3132 37.9998 18.3689 37.9998 18.4345C37.9998 18.5 37.9867 18.5557 37.9604 18.6016C37.9342 18.6475 37.8883 18.6835 37.8227 18.7097L36.386 19.3388L35.8153 20.6757C35.7891 20.7412 35.753 20.7871 35.7071 20.8133C35.6612 20.8395 35.6054 20.8526 35.5398 20.8526ZM31.5398 38.5697C31.4873 38.5697 31.4349 38.5566 31.3824 38.5304C31.3299 38.5041 31.2905 38.4583 31.2643 38.3927L30.6936 37.1149L29.2766 36.5054C29.211 36.4792 29.1651 36.4432 29.1389 36.3973C29.1126 36.3514 29.0995 36.2957 29.0995 36.2302C29.0995 36.1647 29.1126 36.109 29.1389 36.0631C29.1651 36.0172 29.211 35.9812 29.2766 35.955L30.6936 35.3455L31.2643 33.989C31.2905 33.9235 31.3266 33.8776 31.3725 33.8514C31.4185 33.8252 31.4742 33.8121 31.5398 33.8121C31.6054 33.8121 31.6612 33.8252 31.7071 33.8514C31.753 33.8776 31.7891 33.9235 31.8153 33.989L32.386 35.3455L33.803 35.955C33.8686 35.9812 33.9145 36.0172 33.9408 36.0631C33.967 36.109 33.9801 36.1647 33.9801 36.2302C33.9801 36.2957 33.967 36.3514 33.9408 36.3973C33.9145 36.4432 33.8686 36.4792 33.803 36.5054L32.386 37.1149L31.8153 38.3927C31.7891 38.4583 31.7497 38.5041 31.6973 38.5304C31.6448 38.5566 31.5923 38.5697 31.5398 38.5697ZM14.9003 24.1686C14.7953 24.1686 14.6937 24.1391 14.5953 24.0801C14.4969 24.0211 14.4214 23.9392 14.369 23.8344L13.0898 21.1017L10.3346 19.8631C10.2296 19.8107 10.1476 19.7354 10.0886 19.6371C10.0295 19.5388 10 19.4372 10 19.3323C10 19.2275 10.0295 19.1259 10.0886 19.0276C10.1476 18.9293 10.2296 18.854 10.3346 18.8015L13.0898 17.563L14.369 14.85C14.4214 14.732 14.4969 14.6435 14.5953 14.5846C14.6937 14.5256 14.7953 14.4961 14.9003 14.4961C15.0053 14.4961 15.1069 14.5256 15.2053 14.5846C15.3037 14.6435 15.3792 14.7255 15.4317 14.8303L16.7305 17.563L19.4661 18.8015C19.5841 18.854 19.6727 18.9293 19.7317 19.0276C19.7908 19.1259 19.8203 19.2275 19.8203 19.3323C19.8203 19.4372 19.7908 19.5388 19.7317 19.6371C19.6727 19.7354 19.5841 19.8107 19.4661 19.8631L16.7305 21.1017L15.4317 23.8344C15.3792 23.9523 15.3037 24.0375 15.2053 24.0899C15.1069 24.1424 15.0053 24.1686 14.9003 24.1686Z" fill="url(#paint0_linear_52_939)"/>
</g>
<path d="M30 23.9843V26.6212C29.9868 26.6612 29.966 26.7007 29.9613 26.7416C29.8496 27.7296 28.9857 28.5822 28.0271 28.6252C27.4197 28.6525 26.811 28.6498 26.2028 28.6586C25.9858 28.6617 25.7691 28.6591 25.5313 28.6591V32.999C24.0379 32.999 22.5666 33.002 21.0953 32.9976C20.3779 32.9954 19.8296 32.6399 19.3976 32.0743C19.116 31.7056 18.9975 31.2714 19 30.8081C19.0051 29.9384 18.9826 29.0652 19.0502 28.1998C19.1245 27.2475 20.0343 26.4107 20.9615 26.3755C21.7035 26.347 22.4464 26.3514 23.1888 26.3413C23.2717 26.3399 23.3545 26.3413 23.4594 26.3413V22.0124C23.515 22.008 23.5494 22.0031 23.5834 22.0031C25.0267 22.0023 26.47 21.9965 27.9137 22.0031C28.6043 22.0062 29.1352 22.3508 29.5672 22.8856C29.825 23.2047 29.9218 23.5901 30 23.9839V23.9843ZM22.2965 28.5C21.9499 28.5 21.6037 28.5035 21.2571 28.4982C21.1271 28.496 21.0571 28.5369 21.0575 28.6824C21.0596 29.3482 21.0583 30.0136 21.0592 30.6794C21.0592 30.8139 21.1237 30.8771 21.2571 30.8767C21.9359 30.8745 22.6146 30.8749 23.2933 30.8767C23.4318 30.8767 23.4993 30.8204 23.4985 30.6675C23.4947 30.0092 23.4938 29.3508 23.4993 28.6925C23.5006 28.5492 23.4518 28.4965 23.3146 28.4991C22.9752 28.5048 22.6358 28.5009 22.2965 28.5009V28.5ZM26.7201 26.5236C27.0523 26.5236 27.3844 26.5197 27.7166 26.5254C27.8767 26.528 27.9476 26.4634 27.9464 26.2933C27.9421 25.657 27.9426 25.0211 27.9464 24.3847C27.9472 24.2243 27.8963 24.1412 27.7268 24.1425C27.0553 24.1474 26.3837 24.1465 25.7122 24.143C25.544 24.1421 25.496 24.2216 25.4977 24.3864C25.5041 25.0228 25.5054 25.6592 25.4973 26.2951C25.4952 26.4735 25.5665 26.5267 25.7233 26.525C26.0554 26.5206 26.3876 26.5236 26.7197 26.5236H26.7201Z" fill="#E9FF07"/>
<mask id="mask0_52_939" style="mask-type:alpha" maskUnits="userSpaceOnUse" x="4" y="7" width="40" height="40">
<circle cx="24" cy="27" r="20" fill="black"/>
</mask>
<g mask="url(#mask0_52_939)">
<g opacity="0.2" filter="url(#filter2_f_52_939)">
<rect x="12.4736" y="-6" width="5.26423" height="46" transform="rotate(27.8275 12.4736 -6)" fill="white"/>
</g>
</g>
</g>
<defs>
<filter id="filter0_dd_52_939" x="0" y="0" width="48" height="55" filterUnits="userSpaceOnUse" color-interpolation-filters="sRGB">
<feFlood flood-opacity="0" result="BackgroundImageFix"/>
<feColorMatrix in="SourceAlpha" type="matrix" values="0 0 0 0 0 0 0 0 0 0 0 0 0 0 0 0 0 0 127 0" result="hardAlpha"/>
<feOffset dy="4"/>
<feGaussianBlur stdDeviation="2"/>
<feComposite in2="hardAlpha" operator="out"/>
<feColorMatrix type="matrix" values="0 0 0 0 0.913725 0 0 0 0 1 0 0 0 0 0.027451 0 0 0 0.25 0"/>
<feBlend mode="normal" in2="BackgroundImageFix" result="effect1_dropShadow_52_939"/>
<feColorMatrix in="SourceAlpha" type="matrix" values="0 0 0 0 0 0 0 0 0 0 0 0 0 0 0 0 0 0 127 0" result="hardAlpha"/>
<feOffset dy="-3"/>
<feGaussianBlur stdDeviation="2"/>
<feComposite in2="hardAlpha" operator="out"/>
<feColorMatrix type="matrix" values="0 0 0 0 0.913725 0 0 0 0 1 0 0 0 0 0.027451 0 0 0 0.25 0"/>
<feBlend mode="normal" in2="effect1_dropShadow_52_939" result="effect2_dropShadow_52_939"/>
<feBlend mode="normal" in="SourceGraphic" in2="effect2_dropShadow_52_939" result="shape"/>
</filter>
<filter id="filter1_dd_52_939" x="3.63323" y="8.93432" width="40.0017" height="37.1731" filterUnits="userSpaceOnUse" color-interpolation-filters="sRGB">
<feFlood flood-opacity="0" result="BackgroundImageFix"/>
<feColorMatrix in="SourceAlpha" type="matrix" values="0 0 0 0 0 0 0 0 0 0 0 0 0 0 0 0 0 0 127 0" result="hardAlpha"/>
<feOffset dx="-1.31726" dy="2.48816"/>
<feGaussianBlur stdDeviation="2.52475"/>
<feComposite in2="hardAlpha" operator="out"/>
<feColorMatrix type="matrix" values="0 0 0 0 0.0506089 0 0 0 0 0.0159861 0 0 0 0 0.191833 0 0 0 0.25 0"/>
<feBlend mode="normal" in2="BackgroundImageFix" result="effect1_dropShadow_52_939"/>
<feColorMatrix in="SourceAlpha" type="matrix" values="0 0 0 0 0 0 0 0 0 0 0 0 0 0 0 0 0 0 127 0" result="hardAlpha"/>
<feOffset dx="1.24408" dy="-1.1709"/>
<feGaussianBlur stdDeviation="2.19544"/>
<feComposite in2="hardAlpha" operator="out"/>
<feColorMatrix type="matrix" values="0 0 0 0 1 0 0 0 0 1 0 0 0 0 1 0 0 0 0.35 0"/>
<feBlend mode="normal" in2="effect1_dropShadow_52_939" result="effect2_dropShadow_52_939"/>
<feBlend mode="normal" in="SourceGraphic" in2="effect2_dropShadow_52_939" result="shape"/>
</filter>
<filter id="filter2_f_52_939" x="-13.9995" y="-11" width="36.1284" height="53.1378" filterUnits="userSpaceOnUse" color-interpolation-filters="sRGB">
<feFlood flood-opacity="0" result="BackgroundImageFix"/>
<feBlend mode="normal" in="SourceGraphic" in2="BackgroundImageFix" result="shape"/>
<feGaussianBlur stdDeviation="2.5" result="effect1_foregroundBlur_52_939"/>
</filter>
<linearGradient id="paint0_linear_52_939" x1="26.7967" y1="26.8497" x2="24.3181" y2="38.3722" gradientUnits="userSpaceOnUse">
<stop stop-color="#E9FF07"/>
<stop offset="1" stop-color="#E8FF00"/>
</linearGradient>
</defs>
</svg>
