<svg width="32" height="32" viewBox="0 0 32 32" fill="none" xmlns="http://www.w3.org/2000/svg">
<g clip-path="url(#clip0_11_3060)">
<rect opacity="0.4" width="32" height="32" rx="8" fill="#2B2B2B"/>
<path fill-rule="evenodd" clip-rule="evenodd" d="M19.8492 10.35C19.2374 10.35 18.7415 10.8459 18.7415 11.4577C18.7415 11.6486 18.7897 11.8282 18.8747 11.985C18.881 11.9947 18.8871 12.0047 18.8931 12.0148C18.899 12.0249 18.9046 12.0351 18.91 12.0453C19.1058 12.3578 19.4533 12.5655 19.8492 12.5655C20.461 12.5655 20.957 12.0695 20.957 11.4577C20.957 10.8459 20.461 10.35 19.8492 10.35ZM18.0695 13.3638C18.5355 13.7991 19.1612 14.0655 19.8492 14.0655C21.2895 14.0655 22.457 12.898 22.457 11.4577C22.457 10.0175 21.2895 8.84998 19.8492 8.84998C18.409 8.84998 17.2415 10.0175 17.2415 11.4577C17.2415 11.668 17.2663 11.8725 17.3133 12.0683L14.1978 13.8865C13.7318 13.4511 13.1059 13.1846 12.4178 13.1846C10.9776 13.1846 9.81006 14.3521 9.81006 15.7923C9.81006 17.2326 10.9776 18.4001 12.4178 18.4001C13.106 18.4001 13.7319 18.1335 14.198 17.698L17.3139 19.5138C17.2666 19.7104 17.2415 19.9157 17.2415 20.1269C17.2415 21.5672 18.409 22.7347 19.8492 22.7347C21.2895 22.7347 22.457 21.5672 22.457 20.1269C22.457 18.6867 21.2895 17.5192 19.8492 17.5192C19.1622 17.5192 18.5372 17.7848 18.0714 18.2191L14.9538 16.4024C15.0008 16.2067 15.0256 16.0024 15.0256 15.7923C15.0256 15.5822 15.0007 15.3778 14.9538 15.182L18.0695 13.3638ZM13.3578 15.2059C13.363 15.2158 13.3685 15.2257 13.3742 15.2355C13.3799 15.2453 13.3858 15.2548 13.3919 15.2643C13.4772 15.4212 13.5256 15.6011 13.5256 15.7923C13.5256 15.9841 13.4769 16.1644 13.3912 16.3217C13.3853 16.3309 13.3795 16.3403 13.374 16.3498C13.3686 16.359 13.3634 16.3683 13.3585 16.3777C13.1629 16.6914 12.8147 16.9001 12.4178 16.9001C11.806 16.9001 11.3101 16.4041 11.3101 15.7923C11.3101 15.1805 11.806 14.6846 12.4178 14.6846C12.8143 14.6846 13.1621 14.8928 13.3578 15.2059ZM18.7415 20.1269C18.7415 19.9509 18.7825 19.7845 18.8556 19.6367C18.8712 19.6154 18.8859 19.593 18.8995 19.5697C18.9125 19.5474 18.9242 19.5247 18.9347 19.5016C19.1343 19.2103 19.4694 19.0192 19.8492 19.0192C20.461 19.0192 20.957 19.5151 20.957 20.1269C20.957 20.7387 20.461 21.2347 19.8492 21.2347C19.2374 21.2347 18.7415 20.7387 18.7415 20.1269Z" fill="#E9FF07"/>
</g>
<defs>
<clipPath id="clip0_11_3060">
<rect width="32" height="32" fill="white"/>
</clipPath>
</defs>
</svg>
