<svg width="15" height="17" viewBox="0 0 15 17" fill="none" xmlns="http://www.w3.org/2000/svg">
<path d="M11.9625 5.37705C13.1711 5.37705 14.151 4.39722 14.151 3.18853C14.151 1.97984 13.1711 1 11.9625 1C10.7538 1 9.77393 1.97984 9.77393 3.18853C9.77393 4.39722 10.7538 5.37705 11.9625 5.37705Z" stroke="#E9FF07" stroke-width="1.5" stroke-linecap="round" stroke-linejoin="round"/>
<path d="M3.20806 10.4831C4.41675 10.4831 5.39658 9.5033 5.39658 8.29461C5.39658 7.08592 4.41675 6.10608 3.20806 6.10608C1.99937 6.10608 1.01953 7.08592 1.01953 8.29461C1.01953 9.5033 1.99937 10.4831 3.20806 10.4831Z" stroke="#E9FF07" stroke-width="1.5" stroke-linecap="round" stroke-linejoin="round"/>
<path d="M11.9625 15.5902C13.1711 15.5902 14.151 14.6104 14.151 13.4017C14.151 12.193 13.1711 11.2131 11.9625 11.2131C10.7538 11.2131 9.77393 12.193 9.77393 13.4017C9.77393 14.6104 10.7538 15.5902 11.9625 15.5902Z" stroke="#E9FF07" stroke-width="1.5" stroke-linecap="round" stroke-linejoin="round"/>
<path d="M5.09814 9.39661L10.0807 12.3001" stroke="#E9FF07" stroke-width="1.5" stroke-linecap="round" stroke-linejoin="round"/>
<path d="M10.0734 4.29004L5.09814 7.19348" stroke="#E9FF07" stroke-width="1.5" stroke-linecap="round" stroke-linejoin="round"/>
</svg>
