<svg width="120" height="24" viewBox="0 0 120 24" fill="none" xmlns="http://www.w3.org/2000/svg">
<g clip-path="url(#clip0_74_1020)">
<path d="M3.20566 0H24.4505V24H3.20566C1.43631 24 0 22.5901 0 20.8534V3.1466C0 1.40985 1.43631 0 3.20566 0Z" fill="#E9FF07"/>
<path d="M20.0243 7.27091V10.8177C20.0056 10.8715 19.9761 10.9247 19.9695 10.9797C19.8111 12.3085 18.5862 13.4553 17.2269 13.5133C16.3658 13.5499 15.5028 13.5464 14.6404 13.5582C14.3326 13.5623 14.0255 13.5588 13.6883 13.5588V19.3962C11.5708 19.3962 9.4847 19.4004 7.39858 19.3945C6.38142 19.3915 5.60394 18.9133 4.99148 18.1525C4.5922 17.6565 4.42418 17.0725 4.42779 16.4494C4.43502 15.2796 4.4031 14.105 4.49885 12.9411C4.60424 11.6601 5.89422 10.5346 7.20888 10.4873C8.26097 10.4488 9.31427 10.4548 10.367 10.4412C10.4844 10.4394 10.6018 10.4412 10.7506 10.4412V4.6185C10.8295 4.61259 10.8783 4.60608 10.9264 4.60608C12.9728 4.6049 15.0192 4.59722 17.0662 4.60608C18.0454 4.61022 18.7982 5.07367 19.4106 5.79308C19.7762 6.22224 19.9135 6.74067 20.0243 7.27032V7.27091ZM9.10169 13.3448C8.61027 13.3448 8.11945 13.3495 7.62803 13.3424C7.44375 13.3395 7.34438 13.3945 7.34499 13.5901C7.348 14.4857 7.34619 15.3807 7.34739 16.2762C7.34739 16.4571 7.43893 16.5422 7.62803 16.5416C8.59039 16.5387 9.55275 16.5393 10.5151 16.5416C10.7114 16.5416 10.8072 16.466 10.806 16.2603C10.8006 15.3748 10.7994 14.4892 10.8072 13.6037C10.809 13.411 10.7397 13.3401 10.5452 13.3436C10.064 13.3513 9.58287 13.346 9.10169 13.346V13.3448ZM15.3739 10.6865C15.8448 10.6865 16.3158 10.6812 16.7867 10.6888C17.0138 10.6924 17.1143 10.6055 17.1125 10.3767C17.1065 9.52076 17.1071 8.66539 17.1125 7.80943C17.1137 7.59367 17.0415 7.48195 16.8012 7.48372C15.8491 7.49022 14.8969 7.48904 13.9448 7.48431C13.7063 7.48313 13.6383 7.59012 13.6407 7.8118C13.6497 8.66776 13.6515 9.52372 13.6401 10.3791C13.6371 10.6191 13.7382 10.6906 13.9605 10.6883C14.4314 10.6823 14.9023 10.6865 15.3733 10.6865H15.3739Z" fill="black"/>
<path d="M27.8467 3.73536C29.0915 3.47467 32.0514 3.29437 32.9289 3.29437C36.2761 3.29437 38.5013 4.37615 38.5013 7.50147C38.5013 10.8071 36.2562 12.2494 33.4191 12.2494C32.7049 12.2494 32.2965 12.1495 32.0924 12.1093V17.0577H28.7856V5.15821H27.8467V3.73595V3.73536ZM32.9494 5.07782C32.541 5.07782 32.2959 5.09792 32.0924 5.13812V10.4075C32.2556 10.4477 32.623 10.508 33.0517 10.508C34.1333 10.508 35.2155 9.86659 35.2155 7.68294C35.2155 5.4993 34.1339 5.07841 32.95 5.07841L32.9494 5.07782Z" fill="#E9FF07"/>
<path d="M43.7059 15.1756H44.7671V16.5582C44.1546 16.8585 42.9507 17.1192 42.3991 17.1192C40.8887 17.1192 40.6231 16.4979 40.6231 15.1756V9.52553H39.562V8.14287C40.2558 7.78228 41.297 7.58189 42.0932 7.58189C42.8279 7.58189 43.7053 8.00277 43.7053 9.08455V15.175L43.7059 15.1756ZM42.0324 5.91962C41.1549 5.91962 40.3997 5.41893 40.3997 4.23667C40.3997 3.0544 40.9508 2.55371 42.0324 2.55371C42.9098 2.55371 43.665 3.01479 43.665 4.23667C43.665 5.37874 42.9098 5.91962 42.0324 5.91962Z" fill="#E9FF07"/>
<path d="M54.381 16.638C53.6667 17.0187 53.0338 17.1186 52.2991 17.1186C51.156 17.1186 50.4828 16.638 49.5439 13.9732L48.1154 17.0583H45.5029L48.6056 12.7307L46.6664 9.52494H45.6661V8.14228C46.2786 7.80179 47.2584 7.5813 47.9931 7.5813C49.2584 7.5813 49.6667 8.38288 50.4424 10.7267L51.8305 7.6812H54.1575L51.4024 12.0686L52.5454 13.8916C53.2392 15.0337 53.4024 15.2542 54.3822 15.2542V16.6369L54.381 16.638Z" fill="#E9FF07"/>
<path d="M55.5239 16.4778V14.4142C56.5447 15.0757 57.5239 15.3559 58.6061 15.3559C59.2999 15.3559 59.8714 15.0952 59.8714 14.374C59.8714 13.7125 59.0753 13.3519 57.8708 12.9115C56.4423 12.3907 55.5438 11.7293 55.5438 10.427C55.5438 8.34325 57.0132 7.44177 58.9319 7.44177C60.4219 7.44177 61.6871 7.72256 62.4225 8.18305L62.096 9.88611C61.1367 9.50542 60.0954 9.26483 59.6058 9.26483C58.8097 9.26483 58.3201 9.38483 58.3201 10.0061C58.3201 10.6871 59.6468 10.9478 60.4839 11.3084C61.9943 11.9498 62.9331 12.5704 62.9331 14.0932C62.9331 15.3157 62.137 17.2587 58.9735 17.2587C57.6263 17.2587 56.2586 16.9182 55.5239 16.4772V16.4778Z" fill="#E9FF07"/>
<path d="M69.9955 16.8987C69.9955 16.8987 68.9952 17.1594 67.6281 17.1594C65.2602 17.1594 65.0765 15.7171 65.0765 13.9537V9.44574H64.0762V8.08318C64.0762 8.08318 65.5251 7.58249 65.9949 6.05973L66.3622 4.85737L68.1581 4.73737V7.62269H69.9949V9.44574H68.1581V14.0938C68.1581 15.0154 68.464 15.3163 68.9952 15.3163C69.4035 15.3163 69.9955 15.1561 69.9955 15.1561V16.8993V16.8987Z" fill="#E9FF07"/>
<path d="M75.9144 17.2593C73.3019 17.2593 71.3218 16.057 71.3218 12.311C71.3218 7.82307 74.3221 7.44238 76.0161 7.44238C78.7105 7.44238 80.7105 8.18366 80.7105 12.311C80.7105 16.4382 78.2203 17.2593 75.9138 17.2593H75.9144ZM76.0167 9.12534C75.0369 9.12534 74.4654 9.66622 74.4654 12.311C74.4654 14.5549 74.9147 15.5764 76.0167 15.5764C76.9966 15.5764 77.5681 15.1354 77.5681 12.311C77.5681 10.2071 77.3025 9.12534 76.0167 9.12534Z" fill="#E9FF07"/>
<path d="M89.1612 10.1468C88.447 9.86602 87.7327 9.84652 87.2016 9.84652C86.2012 9.84652 85.9158 10.3472 85.9158 11.0489V17.0595H82.8336V9.52612H81.7725V8.14346C82.6499 7.76277 83.487 7.58248 84.0585 7.58248C85.0588 7.58248 85.528 8.00336 85.7116 9.04494C86.3651 8.00336 87.0998 7.56238 88.2831 7.56238C88.5487 7.56238 88.8342 7.58248 89.1606 7.64277V10.1474L89.1612 10.1468Z" fill="#E9FF07"/>
<path d="M90.3247 9.52549V8.14283C90.8553 7.84254 91.7532 7.58185 92.4271 7.58185C94.3663 7.58185 95.0396 10.3466 96.1013 15.0148H96.2235C96.6933 13.2715 97.2648 10.0061 97.6321 7.68175H99.9995C99.5502 9.78559 98.836 12.0094 98.244 13.6924C96.4072 18.8613 94.733 21.4457 92.9167 21.4457C92.3861 21.4457 92.0796 21.2855 91.876 20.9651V18.8016C92.3048 18.8618 92.6517 18.902 93.0396 18.902C93.8152 18.902 94.4072 18.7218 94.4072 17.9403C94.4072 17.319 94.0399 16.3377 93.5701 15.0951C92.774 12.9511 91.917 10.9679 91.3858 9.52549H90.3247Z" fill="#E9FF07"/>
<path d="M102.94 15.52C102.94 16.66 102.2 17.2 101.34 17.2C100.48 17.2 99.74 16.7 99.74 15.52C99.74 14.34 100.28 13.84 101.34 13.84C102.2 13.84 102.94 14.3 102.94 15.52ZM113.352 15.12V16.5C113.352 16.5 112.332 17.08 111.232 17.08C110.072 17.08 109.812 16.56 109.612 15.9C109.072 16.88 107.912 17.18 106.772 17.18C105.612 17.18 104.192 16.52 104.192 14.42C104.192 11.82 106.272 11.1 108.772 11.1H109.292V10.68C109.292 9.3 108.712 9.3 107.932 9.3C107.012 9.3 106.112 9.5 105.032 10.28L104.912 8.18C106.292 7.58 106.992 7.4 108.972 7.4C111.792 7.4 112.312 8.88 112.312 10.68V15.12H113.352ZM109.292 14.12V12.46C107.852 12.46 107.272 12.88 107.272 13.98C107.272 14.62 107.472 15.26 108.132 15.26C109.212 15.26 109.292 14.12 109.292 14.12ZM118.244 4.2C118.244 5.34 117.504 5.88 116.644 5.88C115.784 5.88 115.044 5.38 115.044 4.2C115.044 3.02 115.584 2.52 116.644 2.52C117.504 2.52 118.244 2.98 118.244 4.2ZM118.284 9.04V15.12H119.324V16.5C118.724 16.8 117.544 17.06 117.004 17.06C115.524 17.06 115.264 16.44 115.264 15.12V9.48H114.224V8.1C114.904 7.74 115.924 7.54 116.704 7.54C117.424 7.54 118.284 7.96 118.284 9.04Z" fill="#E9FF07"/>
</g>
<defs>
<clipPath id="clip0_74_1020">
<rect width="120" height="24" fill="white"/>
</clipPath>
</defs>
</svg>
